<?xml version="1.0" standalone="no"?>
<!DOCTYPE svg PUBLIC "-//W3C//DTD SVG 20010904//EN"
 "http://www.w3.org/TR/2001/REC-SVG-20010904/DTD/svg10.dtd">
<svg version="1.0" xmlns="http://www.w3.org/2000/svg"
 width="1243.000000pt" height="1280.000000pt" viewBox="0 0 1243.000000 1280.000000"
 preserveAspectRatio="xMidYMid meet">
<metadata>
Created by potrace 1.15, written by Peter Selinger 2001-2017
</metadata>
<g transform="translate(0.000000,1280.000000) scale(0.100000,-0.100000)"
fill="#000000" stroke="none">
<path d="M9975 12786 c-47 -21 -64 -47 -106 -163 -121 -336 -400 -719 -861
-1183 -954 -960 -2234 -1714 -3326 -1959 -300 -68 -481 -90 -773 -98 -339 -8
-527 11 -852 88 l-167 40 -44 -20 c-85 -37 -103 -100 -71 -241 12 -52 68 -291
123 -530 171 -736 201 -919 209 -1256 8 -329 -20 -558 -112 -922 -76 -297
-155 -521 -285 -804 -115 -250 -320 -623 -350 -639 -8 -4 -71 -19 -140 -34
-233 -50 -511 -151 -708 -256 l-93 -50 -217 36 c-544 91 -1251 250 -1898 425
-100 28 -196 50 -212 50 -93 0 -123 -131 -39 -174 58 -29 763 -210 1207 -310
249 -56 691 -144 833 -167 73 -11 93 -21 64 -32 -34 -13 -245 -197 -352 -308
-98 -101 -278 -323 -314 -386 -6 -12 -43 -6 -212 32 -288 65 -653 156 -934
232 -274 74 -295 75 -329 12 -13 -24 -17 -44 -12 -63 14 -56 40 -67 327 -143
319 -85 693 -177 899 -223 80 -18 146 -33 148 -35 1 -1 -23 -55 -54 -120 -70
-148 -144 -371 -179 -540 -15 -71 -28 -131 -29 -133 -5 -4 -454 107 -755 187
-159 43 -273 68 -288 65 -33 -9 -73 -60 -73 -96 0 -19 10 -39 28 -57 23 -23
71 -39 312 -104 157 -42 391 -102 521 -133 l236 -57 6 -206 c3 -113 13 -251
21 -306 15 -92 65 -304 82 -349 7 -17 4 -18 -32 -12 -72 13 -597 144 -822 205
-123 34 -239 61 -257 61 -45 0 -84 -35 -91 -81 -5 -30 -2 -41 22 -67 26 -29
53 -38 294 -103 241 -64 559 -144 860 -214 l115 -27 67 -137 c70 -142 156
-278 266 -421 72 -93 355 -380 414 -420 41 -27 49 -41 20 -34 -9 2 -134 27
-277 55 -459 89 -839 178 -1394 325 -294 79 -331 83 -364 46 -39 -43 -28 -121
22 -146 50 -26 724 -201 1126 -292 415 -94 969 -201 1215 -235 66 -9 108 -22
187 -60 448 -214 905 -311 1388 -296 495 16 937 138 1364 375 36 20 133 59
215 87 190 65 298 110 457 191 587 298 1051 759 1463 1455 l86 147 163 -82
c306 -153 572 -231 923 -272 189 -22 554 -15 740 14 425 67 799 216 1124 450
134 96 363 325 453 452 81 114 184 320 227 450 63 193 88 475 60 675 -43 299
-193 615 -406 853 -31 35 -55 65 -53 67 5 5 539 156 1139 324 488 136 491 138
506 197 13 50 -38 114 -90 114 -18 0 -959 -263 -1386 -387 -162 -47 -304 -88
-316 -90 -15 -3 -52 18 -125 72 -57 42 -104 79 -104 83 1 4 57 120 126 257 68
138 147 300 174 360 27 61 50 112 52 114 3 5 295 88 983 282 333 93 617 174
631 180 36 14 64 68 55 103 -10 41 -50 76 -85 76 -28 0 -529 -137 -1186 -325
-159 -45 -291 -82 -293 -80 -1 1 27 78 64 171 80 204 190 511 235 654 17 58
37 110 43 117 6 6 142 48 301 92 722 200 856 239 880 255 78 51 40 167 -54
166 -20 -1 -265 -65 -546 -144 -280 -79 -512 -142 -513 -140 -2 1 17 81 42
176 70 265 136 564 143 650 4 59 10 79 22 82 9 3 212 59 451 126 239 67 446
129 460 139 58 42 42 139 -25 161 -30 10 -77 -1 -452 -106 -230 -64 -424 -119
-432 -122 -12 -5 -13 22 -7 174 8 204 35 686 39 689 1 1 191 55 422 120 231
64 432 123 446 131 32 16 54 64 45 100 -9 35 -53 74 -84 74 -14 0 -91 -18
-171 -41 -345 -96 -642 -179 -645 -179 -2 0 -6 145 -9 323 -7 396 -23 533 -93
817 -152 620 -524 1247 -1207 2035 -112 129 -165 155 -242 121z m-263 -3218
c37 -145 50 -268 46 -457 -2 -133 -6 -165 -18 -172 -8 -5 -82 -36 -165 -69
-725 -295 -1186 -666 -1614 -1300 -133 -197 -235 -370 -426 -725 -90 -166
-193 -352 -230 -415 -485 -820 -1019 -1286 -1787 -1561 -70 -25 -108 -34 -108
-27 0 49 90 422 294 1213 134 518 185 876 173 1210 -10 265 -64 509 -158 713
l-39 85 132 -6 c156 -8 478 6 674 28 1078 122 2130 578 2867 1243 110 99 306
306 315 333 9 24 20 1 44 -93z m1 -920 c-46 -237 -143 -619 -208 -818 l-15
-45 -147 -70 c-569 -270 -945 -583 -1306 -1087 -161 -225 -274 -413 -509 -848
-91 -168 -196 -357 -233 -420 -319 -538 -672 -929 -1089 -1206 l-88 -58 -25
29 c-145 172 -338 352 -507 472 -47 34 -83 64 -79 66 5 2 40 15 78 27 513 169
996 495 1386 940 257 292 417 541 779 1210 317 586 547 912 846 1200 204 196
443 363 724 505 95 49 381 175 396 175 8 0 7 -21 -3 -72z m-313 -1140 c-5 -13
-39 -103 -74 -200 -68 -185 -202 -521 -287 -718 l-50 -115 -83 -52 c-334 -210
-651 -526 -915 -912 l-81 -120 -143 -69 c-149 -72 -272 -145 -369 -218 -32
-24 -58 -41 -58 -38 0 3 13 24 28 47 55 80 170 283 337 592 92 171 201 366
243 435 402 670 763 1032 1317 1322 72 37 133 68 137 68 4 0 3 -10 -2 -22z
m-685 -1655 c-70 -153 -130 -281 -133 -285 -4 -3 -52 -14 -107 -23 -55 -9
-135 -25 -179 -36 -43 -11 -80 -19 -82 -17 -8 9 234 296 336 398 109 108 279
254 288 246 2 -2 -54 -129 -123 -283z m-1966 -1563 c-82 -193 -121 -461 -101
-682 l12 -133 -62 -62 c-34 -34 -64 -61 -66 -58 -2 2 -22 47 -43 100 -50 124
-147 315 -209 410 l-49 75 77 52 c150 100 373 278 441 352 14 14 26 25 28 23
1 -2 -11 -36 -28 -77z m0 -1113 c44 -112 90 -199 160 -306 60 -90 62 -94 46
-118 -36 -54 -282 -333 -294 -333 -3 0 -4 48 -3 107 5 140 -13 347 -44 498
l-24 120 63 57 c34 31 63 56 64 55 1 -1 15 -37 32 -80z m392 -593 c35 -37 187
-167 228 -196 l23 -17 -38 -68 c-321 -575 -731 -1040 -1164 -1318 -84 -54
-239 -145 -247 -145 -3 0 26 35 64 78 177 198 285 357 398 587 92 187 141 319
185 496 28 116 29 117 82 164 90 82 276 276 351 367 40 48 74 88 78 88 3 0 21
-16 40 -36z"/>
</g>
</svg>
